<svg id="Слой_9" data-name="Слой 9" xmlns="http://www.w3.org/2000/svg" viewBox="0 0 65 65"><defs><style>.cls-1{fill:#6eff9e}</style></defs><title>качественный_результат</title><path class="cls-1" d="M1268.7 3353.44l-9.45-1-5.29-9.52a1.16 1.16 0 0 0-1.95 0l-5.29 9.52-9.45 1a1.11 1.11 0 0 0-.67 1.89l7.37 7.37-2.11 10.55a1.11 1.11 0 0 0 1.63 1.19l9.48-5.27 9.48 5.27a1.11 1.11 0 0 0 1.64-1.19l-2.11-10.55 7.37-7.37a1.11 1.11 0 0 0-.65-1.89zm-8.71 8.11a1.12 1.12 0 0 0-.31 1l1.75 8.77-7.92-4.4a1.11 1.11 0 0 0-1.08 0l-7.92 4.4 1.75-8.77a1.12 1.12 0 0 0-.31-1l-6.15-6.16 7.72-.86a1.11 1.11 0 0 0 .85-.57l4.59-8.27 4.59 8.27a1.12 1.12 0 0 0 .85.57l7.72.86zm21.8-7.21c-1-.74-2.25-1.66-2.41-2.27s.46-2.14 1-3.32c.88-2 1.79-4.12.78-5.87s-3.31-2-5.53-2.27c-1.26-.14-2.83-.32-3.3-.79s-.65-2-.79-3.3c-.25-2.22-.51-4.5-2.28-5.53s-3.84-.1-5.86.78c-1.18.51-2.64 1.15-3.32 1s-1.53-1.41-2.27-2.41c-1.27-1.73-2.72-3.69-4.81-3.69s-3.53 2-4.8 3.69c-.74 1-1.66 2.25-2.27 2.41s-2.14-.46-3.32-1c-2-.88-4.12-1.79-5.87-.78s-2 3.31-2.28 5.53c-.14 1.26-.32 2.83-.79 3.3s-2 .65-3.3.79c-2.22.25-4.5.51-5.53 2.28s-.1 3.84.78 5.86c.51 1.18 1.15 2.65 1 3.32s-1.41 1.53-2.41 2.27c-1.73 1.27-3.69 2.72-3.69 4.81s2 3.53 3.69 4.8c1 .74 2.25 1.66 2.41 2.27s-.46 2.14-1 3.32c-.88 2-1.79 4.12-.78 5.87s3.31 2 5.53 2.28c1.26.14 2.83.32 3.3.79s.65 2 .79 3.3c.25 2.22.51 4.5 2.27 5.53s3.84.1 5.87-.78c1.18-.51 2.65-1.15 3.32-1s1.53 1.41 2.27 2.41c1.27 1.73 2.72 3.69 4.81 3.69s3.53-2 4.81-3.69c.74-1 1.66-2.25 2.27-2.41s2.14.46 3.32 1c2 .88 4.11 1.79 5.87.78s2-3.31 2.27-5.53c.14-1.26.32-2.83.79-3.3s2-.65 3.3-.79c2.22-.25 4.5-.51 5.53-2.28s.1-3.84-.78-5.86c-.51-1.18-1.15-2.65-1-3.32s1.41-1.53 2.41-2.27c1.73-1.27 3.69-2.72 3.69-4.81s-1.96-3.53-3.68-4.81zm-1.68 7.34c-1.5 1.1-3 2.25-3.47 3.81s.35 3.43 1.11 5.17c.49 1.12 1.22 2.81.93 3.32s-2.17.74-3.4.88c-1.88.21-3.82.43-5 1.6s-1.38 3.11-1.6 5c-.14 1.23-.35 3.09-.88 3.4s-2.2-.44-3.32-.93c-1.75-.76-3.55-1.55-5.17-1.11s-2.71 2-3.81 3.47c-.75 1-1.87 2.54-2.53 2.54s-1.79-1.53-2.53-2.54c-1.1-1.5-2.25-3-3.81-3.47a3.72 3.72 0 0 0-1-.12 11.11 11.11 0 0 0-4.19 1.24c-1.12.49-2.81 1.22-3.32.93s-.74-2.17-.88-3.4c-.21-1.88-.43-3.82-1.6-5s-3.11-1.39-5-1.6c-1.23-.14-3.09-.35-3.4-.88s.44-2.2.93-3.32c.76-1.75 1.54-3.55 1.11-5.17s-2-2.71-3.47-3.81c-1-.75-2.54-1.88-2.54-2.53s1.53-1.78 2.53-2.53c1.5-1.1 3-2.25 3.47-3.81s-.35-3.43-1.11-5.17c-.49-1.12-1.22-2.81-.93-3.32s2.17-.74 3.4-.88c1.88-.21 3.82-.43 5-1.6s1.39-3.11 1.6-5c.14-1.23.35-3.09.88-3.4s2.2.44 3.32.93c1.75.76 3.55 1.54 5.17 1.11s2.71-2 3.81-3.47c.75-1 1.88-2.54 2.53-2.54s1.78 1.53 2.53 2.54c1.11 1.5 2.25 3 3.81 3.47s3.43-.35 5.17-1.11c1.12-.49 2.81-1.22 3.32-.93s.74 2.17.88 3.4c.21 1.88.43 3.82 1.6 5s3.11 1.39 5 1.6c1.23.14 3.09.35 3.4.88s-.44 2.2-.93 3.32c-.76 1.75-1.54 3.55-1.11 5.17s2 2.71 3.47 3.81c1 .75 2.54 1.88 2.54 2.53s-1.49 1.77-2.5 2.52z" transform="translate(-1220.48 -3326.65)"/></svg>