<svg id="Слой_9" data-name="Слой 9" xmlns="http://www.w3.org/2000/svg" viewBox="0 0 55.06 65"><defs><style>.cls-1{fill:#6eff9e}</style></defs><title>доп_услуги</title><path class="cls-1" d="M777.82 3626h-25.47v-.62a3.8 3.8 0 0 0-3.8-3.8h-4.42a3.8 3.8 0 0 0-3.8 3.8v.62h-6.14a1 1 0 0 0-1 1v8.35h-8.35a1 1 0 0 0-1 1v38.94l.06.07 10.49 10.49.07.06h30.71a1 1 0 0 0 1-1v-4.49h11.11a1 1 0 0 0 1-1v-53a1 1 0 0 0-.46-.42zm-35.4-.62a1.73 1.73 0 0 1 1.73-1.73h4.42a1.73 1.73 0 0 1 1.73 1.73v.62h-7.87v-.62zm0 12.08h5.11v5.11h-5.11v-5.11zm4.76 7.18a1.72 1.72 0 0 1-1.38.69h-1.66a1.72 1.72 0 0 1-1.38-.69h4.41zm-11.93-16.56h5.11v7.31h-5.11v-7.31zm-1 52v3l-7-7h7v3.93zm30.36 0v4.49h-28.26v-9.45a1 1 0 0 0-1-1h-9.45v-36.57h14.49v5.11H732a1 1 0 1 0 0 2.07h8.49a3.8 3.8 0 0 0 3.65 2.76h1.66a3.8 3.8 0 0 0 3.65-2.76H759a1 1 0 1 0 0-2.07h-9.45v-5.11h15v42.57zm12.14-1h-10.04v-42.57a1 1 0 0 0-1-1h-16.12v-5a1 1 0 1 0-2.07 0v5h-5.11v-7.31h34.36v50.8z" transform="translate(-723.79 -3621.61)"/><path class="cls-1" d="M759 3651.42h-27a1 1 0 0 0 0 2.07h27a1 1 0 0 0 0-2.07zm0 8.84h-27a1 1 0 0 0 0 2.07h27a1 1 0 0 0 0-2.07zm0 8.83h-27a1 1 0 0 0 0 2.07h27a1 1 0 0 0 0-2.07z" transform="translate(-723.79 -3621.61)"/></svg>