<svg id="Слой_9" data-name="Слой 9" xmlns="http://www.w3.org/2000/svg" viewBox="0 0 65 52.79"><defs><style>.cls-1{fill:#6eff9e}</style></defs><title>команда_специалистов</title><path class="cls-1" d="M277.05 3385.54H230a2.94 2.94 0 0 1-2.86-3.64c.21-1.51 3-19.36 19.17-22l.42 2.52c-14.86 2.47-17 19.2-17.06 19.92v.2a.38.38 0 0 0 .37.49h47a.38.38 0 0 0 .37-.49v-.2c-.08-.72-2.23-17.64-17.33-20l.39-2.53c16.41 2.51 19.26 20.57 19.47 22.09a2.94 2.94 0 0 1-2.89 3.64z" transform="translate(-227.08 -3332.76)"/><path class="cls-1" d="M264.47 3338.91a13.52 13.52 0 0 0-24.85 7.38c0 10.06 6.35 18.87 13.54 18.87s13.48-8.63 13.48-18.87a13.69 13.69 0 0 0-1-5.1 16.52 16.52 0 0 0-1.17-2.28zm-11.31 23.86c-5.93 0-11.14-7.73-11.14-16.54a5.8 5.8 0 0 1 .06-1c.12-.82.29-1.47.48-2.28a11.17 11.17 0 0 1 10.6-7.79 10.94 10.94 0 0 1 9.59 5.63c.06.06.06.18.12.24a.82.82 0 0 0 .18.24 12.47 12.47 0 0 1 1.08 3.6 10.11 10.11 0 0 1 .12 2.4c-.43 8.37-5.4 15.5-11.09 15.5zm30.61 11.18h-8.3v-2.56h8.11c-.06-.47-1.48-11.62-11.37-13.13l.39-2.53c11.29 1.73 13.33 14 13.51 15.27a2.4 2.4 0 0 1-2.34 2.95z" transform="translate(-227.08 -3332.76)"/><path class="cls-1" d="M276.4 3343.41a11.67 11.67 0 0 0-.83-1.6 9.46 9.46 0 0 0-12.65-3.08 5.91 5.91 0 0 1 1.4 1.89 7.12 7.12 0 0 1 3.3-.81 7 7 0 0 1 6.17 3.62.57.57 0 0 0 .08.15.87.87 0 0 0 .12.17 8.13 8.13 0 0 1 .67 2.29 4.43 4.43 0 0 1 .08 1.08v.46c-.27 5.5-3.54 10.15-7.14 10.15a5.29 5.29 0 0 1-3.46-1.44 4.81 4.81 0 0 1-1.25 1.93 7.42 7.42 0 0 0 4.71 1.85c5.13 0 9.47-6 9.47-13.12a9.66 9.66 0 0 0-.67-3.54zm13.6 22.7h-6.95v-2.56h6.29c-.48-1.75-2.35-7.15-7.35-8.33l.58-2.49c7.38 1.73 9.25 10.06 9.4 10.84a2 2 0 0 1-1.97 2.54z" transform="translate(-227.08 -3332.76)"/><path class="cls-1" d="M285.15 3344.8a8.15 8.15 0 0 0-.58-1.12 6.63 6.63 0 0 0-9.84-1.46 13.07 13.07 0 0 1 .88 1.82 4.69 4.69 0 0 1 3.4-1.46 4.64 4.64 0 0 1 4.06 2.39l.08.16.07.09a5.39 5.39 0 0 1 .44 1.5 2.89 2.89 0 0 1 .05.71v.31c-.18 3.67-2.34 6.77-4.7 6.77a4.24 4.24 0 0 1-3.38-2.29 7.46 7.46 0 0 1-.91 1.93 5.73 5.73 0 0 0 4.29 2.28c3.59 0 6.63-4.17 6.63-9.12a6.77 6.77 0 0 0-.49-2.51z" transform="translate(-227.08 -3332.76)"/></svg>