<svg id="Слой_9" data-name="Слой 9" xmlns="http://www.w3.org/2000/svg" viewBox="0 0 59.4 60"><defs><style>.cls-1{fill:#6eff9e}</style></defs><title>оптимизация_бюджета</title><path class="cls-1" d="M286.49 3652.06h-2.88v-13.24a5.76 5.76 0 0 0-5.76-5.76H274l-4-7.17a3.45 3.45 0 0 0-4.7-1.34l-15.3 8.51h-17.1a5.76 5.76 0 0 0-5.76 5.76v39.53a5.76 5.76 0 0 0 5.76 5.76h45a5.76 5.76 0 0 0 5.76-5.76v-11.61h2.88v-14.68zm-8.64-16.7a3.45 3.45 0 0 1 3.42 3.07h-4.33l-1.71-3.07h2.62zm-11.47-8.81a1.17 1.17 0 0 1 1.56.45l6.36 11.43H245zm14.92 51.79a3.46 3.46 0 0 1-3.45 3.45h-45a3.46 3.46 0 0 1-3.45-3.45v-39.53a3.46 3.46 0 0 1 3.45-3.45h13l-5.52 3.07h-6.72a1.15 1.15 0 1 0 0 2.3h47.74v11.32h-8.42a7.1 7.1 0 0 0-7.09 7.09v.5a7.1 7.1 0 0 0 7.09 7.09h8.42v11.61zm2.88-13.91h-11.3a4.8 4.8 0 0 1-4.79-4.79v-.5a4.8 4.8 0 0 1 4.79-4.79h11.3v10.08zm-7.77-4.94a2.54 2.54 0 1 1-2.54-2.54 2.54 2.54 0 0 1 2.54 2.54zm0 0" transform="translate(-227.09 -3624.11)"/></svg>