<svg id="Слой_9" data-name="Слой 9" xmlns="http://www.w3.org/2000/svg" viewBox="0 0 50.65 65"><defs><style>.cls-1{fill:#6eff9e}</style></defs><title>копирайтинг</title><path class="cls-1" d="M649.23 1795h-40.85a1 1 0 0 0-1 1v14.35a1 1 0 0 0 1.84.65l3.22-4h10.36v5.66h-22.15a1 1 0 0 0-1 1v35.08l.06.07 10.49 10.49.07.06h29a1 1 0 0 0 1-1v-45.27a1 1 0 0 0-1-1h-5V1807h10.93l3.22 4a1 1 0 0 0 1.84-.65V1796a1 1 0 0 0-1.03-1zm-39.12 61.47l-7-7h7v7zm28.7-41.73V1858h-26.64v-8.42h21.6a1 1 0 0 0 0-2.07h-32.09v-32.71h21.12v6.2h-16.08a1 1 0 0 0 0 2.07h16.08v6.76h-16.08a1 1 0 0 0 0 2.07h16.08v6.76h-16.08a1 1 0 0 0 0 2.07h16.08v1.73a1 1 0 0 0 1 1h9.94a1 1 0 0 0 1-1v-27.67h4zm9.38-7.3l-1.69-2.11a1 1 0 0 0-.81-.39h-11.92a1 1 0 0 0-1 1v35.4h-7.87V1806a1 1 0 0 0-1-1h-11.99a1 1 0 0 0-.81.39l-1.69 2.11v-10.37h38.78v10.37z" transform="translate(-599.61 -1795.02)"/></svg>