<svg id="Слой_9" data-name="Слой 9" xmlns="http://www.w3.org/2000/svg" viewBox="0 0 67.33 65"><defs><style>.cls-1{fill:#6eff9e}</style></defs><title>маркетинговые_исследования</title><path class="cls-1" d="M258.73 1828.54l-12.61-27a.91.91 0 0 0-.5-.46.85.85 0 0 0-.29-.05.87.87 0 0 0-.37.09 30.9 30.9 0 1 0 34.88 49.88.88.88 0 0 0 0-1.27zm18.89 22.18a29.15 29.15 0 0 1-48.71-20.72 28.92 28.92 0 0 1 15.56-26.64l.44-.23 12.3 26.41a.76.76 0 0 0 .18.25l20.6 20.6z" transform="translate(-227.08 -1795.02)"/><path class="cls-1" d="M293.94 1821a31 31 0 0 0-17.4-22.67.87.87 0 0 0-.69 0 .84.84 0 0 0-.48.45l-12.7 27.22a.85.85 0 0 0 .17 1l21.25 21.25a.88.88 0 0 0 1.23 0 30.88 30.88 0 0 0 8.62-27.25zm-8.94 25l-.33.36-20.15-20.15 12-25.83.44.23A29.18 29.18 0 0 1 285 1846zm-13-48.51a29.79 29.79 0 0 0-23.73 0l-.27.12 12.13 26 12-25.74.12-.26zm-11.86 21.9l-9.49-20.71a24.18 24.18 0 0 1 9.49-1.77 27.16 27.16 0 0 1 9.76 1.61z" transform="translate(-227.08 -1795.02)"/><path class="cls-1" d="M39.55 24.37l5.53 15.74"/><path class="cls-1" transform="rotate(-19.35 -5108.504 1596.11)" d="M268.45 1818.92h1.88v16.68h-1.88z"/><path class="cls-1" d="M42.52 17.76l10.69 30.42"/><path class="cls-1" transform="rotate(-19.35 -5102.955 1596.845)" d="M274 1811.87h1.88v32.24H274z"/><path class="cls-1" d="M45.52 11.37l13.82 39.35"/><path class="cls-1" transform="rotate(-19.35 -5098.399 1594.905)" d="M278.57 1805.22h1.88v41.7h-1.88z"/><path class="cls-1" d="M48.64 5.34l14.08 40.09"/><path class="cls-1" transform="rotate(-19.35 -5095.145 1589.273)" d="M281.82 1799.17h1.88v42.49h-1.88z"/><path class="cls-1" d="M54.67 7.62l10.84 30.84"/><path class="cls-1" transform="rotate(-19.35 -5090.73 1586.917)" d="M286.23 1801.72h1.88v32.69h-1.88z"/></svg>