<svg id="Слой_9" data-name="Слой 9" xmlns="http://www.w3.org/2000/svg" viewBox="0 0 19.9 22"><defs><style>.cls-1{fill:#fff}</style></defs><title>прикрепить_файл</title><path class="cls-1" d="M975.65 6027.48a5 5 0 0 0-7.1 0l-9.42 9.42a6.47 6.47 0 0 0-1.91 4.6 6.4 6.4 0 0 0 1.91 4.6 6.47 6.47 0 0 0 4.6 1.91 6.4 6.4 0 0 0 4.6-1.91l4.18-4.18a.59.59 0 0 0 0-.84.61.61 0 0 0-.84 0l-4.18 4.18a5.32 5.32 0 1 1-7.52-7.52l9.42-9.42a3.79 3.79 0 0 1 2.7-1.12 3.85 3.85 0 0 1 2.7 1.12 3.8 3.8 0 0 1 1.12 2.7 3.84 3.84 0 0 1-1.12 2.7l-9.44 9.44a2.37 2.37 0 0 1-3.32 0 2.34 2.34 0 0 1 0-3.32l4.2-4.18a.59.59 0 0 0-.84-.84l-4.19 4.18a3.52 3.52 0 0 0 0 5 3.43 3.43 0 0 0 2.52 1 3.47 3.47 0 0 0 2.48-1l9.44-9.44a5 5 0 0 0 .01-7.08z" transform="translate(-957.22 -6026.01)"/></svg>