<svg id="Слой_9" data-name="Слой 9" xmlns="http://www.w3.org/2000/svg" viewBox="0 0 66.1 65"><defs><style>.cls-1{fill:#6eff9e}</style></defs><title>верстка</title><path class="cls-1" d="M292.16 2094.76h-64a1 1 0 0 0-1 1v62.93a1 1 0 0 0 1 1h64a1 1 0 0 0 1-1v-62.89a1 1 0 0 0-1-1.04zm-1 62.93h-62v-47.61h62v47.61zm0-49.68h-62v-11.18h62V2108z" transform="translate(-227.09 -2094.76)"/><path class="cls-1" d="M261.25 2098.07a4.35 4.35 0 1 0 4.35 4.35 4.35 4.35 0 0 0-4.35-4.35zm0 6.62a2.28 2.28 0 1 1 2.28-2.28 2.28 2.28 0 0 1-2.28 2.29zm-12.15-6.62a4.35 4.35 0 1 0 4.35 4.35 4.35 4.35 0 0 0-4.35-4.35zm0 6.62a2.28 2.28 0 1 1 2.28-2.28 2.28 2.28 0 0 1-2.28 2.29zm-12.1-6.62a4.35 4.35 0 1 0 4.35 4.35 4.35 4.35 0 0 0-4.35-4.35zm0 6.62a2.28 2.28 0 1 1 2.28-2.28 2.28 2.28 0 0 1-2.28 2.29zm10.47 39.99a1 1 0 0 1-.67-.26l-10.38-9.34a2 2 0 0 1 0-2.93l10.38-9.92a1 1 0 0 1 1.38 1.45l-10.38 9.92 10.38 9.34a1 1 0 0 1-.71 1.74zm25.22 0a1 1 0 0 1-.67-1.74l10.38-9.34-10.4-9.92a1 1 0 1 1 1.38-1.45l10.38 9.92a2 2 0 0 1 0 2.93l-10.38 9.34a1 1 0 0 1-.69.26zm-19.69 2.48a1 1 0 0 1-.87-1.5l14.13-24.54a1 1 0 1 1 1.73 1l-14.13 24.54a1 1 0 0 1-.86.5z" transform="translate(-227.09 -2094.76)"/></svg>