<svg id="Слой_9" data-name="Слой 9" xmlns="http://www.w3.org/2000/svg" viewBox="0 0 63.06 65"><defs><style>.cls-1{fill:#6eff9e}</style></defs><title>клиент_сервис</title><path class="cls-1" d="M731.81 3379.42h1.1a3.44 3.44 0 0 0 6.41-1.72v-19.56a3.44 3.44 0 0 0-3.44-3.44 3.46 3.46 0 0 0-3 1.72h-.39v-3.58a23.24 23.24 0 0 1 13.68-21.19 3.67 3.67 0 0 0 3.24 2h12.64a3.67 3.67 0 0 0 3.24-2 23.27 23.27 0 0 1 13.71 21.19v3.58h-.39a3.44 3.44 0 0 0-5.41-.71 3.41 3.41 0 0 0-1 2.43v19.56a3.44 3.44 0 0 0 1.64 2.93 11.49 11.49 0 0 1-8.52 5.17 4.54 4.54 0 0 0-4.33-3.2h-2.31a4.53 4.53 0 0 0-4.52 4.52 4.53 4.53 0 0 0 4.52 4.52H761a4.53 4.53 0 0 0 4.35-3.3 14 14 0 0 0 11.2-7.33 3.47 3.47 0 0 0 2.06-1.59h1.1a7.59 7.59 0 0 0 7.58-7.58V3364a7.59 7.59 0 0 0-5.75-7.36v-3.81a25.8 25.8 0 0 0-15.79-23.77v-1.15a1.27 1.27 0 0 0-1.27-1.27H747a1.27 1.27 0 0 0-1.27 1.27v1.15a25.78 25.78 0 0 0-15.73 23.78v3.81a7.59 7.59 0 0 0-5.75 7.36v7.84a7.59 7.59 0 0 0 7.56 7.57zm3.17-21.28a.92.92 0 0 1 0-.19.9.9 0 0 1 1.52-.45.9.9 0 0 1 .26.64v19.56a.9.9 0 1 1-1.81 0v-19.56zm23.62 31a2 2 0 0 1-1.91-2 2 2 0 0 1 1.91-2v4zm2.53 0v-4a2 2 0 0 1 1.85 2 2 2 0 0 1-1.84 1.97zm15.4-11.4a.9.9 0 0 1-1.81 0v-19.56a.9.9 0 0 1 .26-.64.91.91 0 0 1 1.53.45.92.92 0 0 1 0 .19v19.56zm2.53-18.75h.64a5.05 5.05 0 0 1 5 5v7.84a5 5 0 0 1-5 5h-.64V3359zm-30.77-29.77h14.91v.75a1.13 1.13 0 0 1-1.13 1.13h-12.63a1.13 1.13 0 0 1-1.13-1.13v-.75zM726.77 3364a5.05 5.05 0 0 1 5-5h.64v17.93h-.64a5 5 0 0 1-5-5V3364z" transform="translate(-724.23 -3326.65)"/></svg>