<svg id="Слой_9" data-name="Слой 9" xmlns="http://www.w3.org/2000/svg" viewBox="0 0 64.57 65"><defs><style>.cls-1{fill:#6eff9e}.cls-2{fill:#fff}</style></defs><title>проектирование</title><path class="cls-1" d="M1031.56 1854.3h-53.71v-53.7h53.71v53.71zm-51.63-2.08h49.55v-49.55h-49.55v49.55z" transform="translate(-972.14 -1795.02)"/><path class="cls-1" d="M1005.75 1854.3h-27.9v-27.89h27.89v27.89zm-25.81-2.08h23.73v-23.73h-23.74v23.73z" transform="translate(-972.14 -1795.02)"/><circle class="cls-2" cx="57.81" cy="6.76" r="5.72"/><path class="cls-1" d="M1029.95 1808.54a6.76 6.76 0 1 1 6.76-6.76 6.77 6.77 0 0 1-6.76 6.76zm0-11.44a4.68 4.68 0 1 0 4.68 4.68 4.68 4.68 0 0 0-4.68-4.68z" transform="translate(-972.14 -1795.02)"/><circle class="cls-2" cx="32.57" cy="32.43" r="5.72"/><path class="cls-1" d="M1004.71 1834.21a6.76 6.76 0 1 1 6.76-6.76 6.77 6.77 0 0 1-6.76 6.76zm0-11.44a4.68 4.68 0 1 0 4.68 4.68 4.68 4.68 0 0 0-4.68-4.68z" transform="translate(-972.14 -1795.02)"/><circle class="cls-2" cx="6.76" cy="6.76" r="5.72"/><path class="cls-1" d="M978.89 1808.54a6.76 6.76 0 1 1 6.76-6.76 6.77 6.77 0 0 1-6.76 6.76zm0-11.44a4.68 4.68 0 1 0 4.68 4.68 4.68 4.68 0 0 0-4.68-4.68z" transform="translate(-972.14 -1795.02)"/><circle class="cls-2" cx="57.81" cy="58.24" r="5.72"/><path class="cls-1" d="M1029.95 1860a6.76 6.76 0 1 1 6.76-6.76 6.77 6.77 0 0 1-6.76 6.76zm0-11.44a4.68 4.68 0 1 0 4.68 4.68 4.68 4.68 0 0 0-4.68-4.66z" transform="translate(-972.14 -1795.02)"/><circle class="cls-2" cx="6.76" cy="58.24" r="5.72"/><path class="cls-1" d="M978.89 1860a6.76 6.76 0 1 1 6.76-6.76 6.77 6.77 0 0 1-6.76 6.76zm0-11.44a4.68 4.68 0 1 0 4.68 4.68 4.68 4.68 0 0 0-4.68-4.66z" transform="translate(-972.14 -1795.02)"/></svg>