<svg id="Слой_9" data-name="Слой 9" xmlns="http://www.w3.org/2000/svg" viewBox="0 0 65 65"><defs><style>.cls-1{fill:#6eff9e}</style></defs><title>наполнение_контентом</title><path class="cls-1" d="M611.92 2127.26a6.15 6.15 0 1 0-6.15 6.15 6.16 6.16 0 0 0 6.15-6.15zm-6.15 4a4 4 0 1 1 4-4 4 4 0 0 1-4 4zm52.69-10.15a6.15 6.15 0 1 0 6.15 6.15 6.16 6.16 0 0 0-6.15-6.15zm0 10.14a4 4 0 1 1 4-4 4 4 0 0 1-4 4zm-49.33 10.29a6.15 6.15 0 1 0 8.7 0 6.16 6.16 0 0 0-8.7 0zm7.17 7.17a4 4 0 1 1 0-5.64 4 4 0 0 1 0 5.64zm15.81-1.26a6.15 6.15 0 1 0 6.15 6.15 6.16 6.16 0 0 0-6.15-6.15zm0 10.14a4 4 0 1 1 4-4 4 4 0 0 1-4 4zm14.28-16.05a6.15 6.15 0 1 0 8.7 0 6.16 6.16 0 0 0-8.7 0zm7.17 7.17a4 4 0 1 1 0-5.64 4 4 0 0 1 0 5.64zm-2.82-33.93a6.15 6.15 0 1 0-4.35-1.8 6.14 6.14 0 0 0 4.35 1.8zm-2.82-9a4 4 0 1 1 0 5.64 4 4 0 0 1 0-5.64zm-15.81 1.29a6.15 6.15 0 1 0-6.15-6.15 6.16 6.16 0 0 0 6.15 6.15zm0-10.14a4 4 0 1 1-4 4 4 4 0 0 1 4-4zm-18.63 17.85a6.15 6.15 0 1 0-4.35-1.8 6.14 6.14 0 0 0 4.35 1.8zm-2.82-9a4 4 0 1 1 0 5.64 4 4 0 0 1 0-5.64zm20.34 3.79v5.19a1.08 1.08 0 0 0 2.17 0v-5.19a1.08 1.08 0 0 0-2.17 0zm2.2 35.38v-5.19a1.08 1.08 0 0 0-2.17 0v5.19a1.08 1.08 0 0 0 2.17 0zM620.37 2114a1.08 1.08 0 0 0-1.53 1.53l3.67 3.67a1.08 1.08 0 0 0 1.53-1.53zm25.02 26.53a1.08 1.08 0 0 0 0-1.53l-3.67-3.67a1.08 1.08 0 0 0-1.53 1.53l3.67 3.67a1.08 1.08 0 0 0 1.53 0zm-32.05-13.27a1.08 1.08 0 0 0 1.08 1.08h5.19a1.08 1.08 0 1 0 0-2.17h-5.19a1.08 1.08 0 0 0-1.08 1.08zm36.46-1.08h-5.19a1.08 1.08 0 1 0 0 2.17h5.19a1.08 1.08 0 1 0 0-2.17zm-27.29 9.15l-3.67 3.67a1.08 1.08 0 0 0 1.53 1.53l3.67-3.67a1.08 1.08 0 0 0-1.53-1.53zm18.44-15.82a1.08 1.08 0 0 0 .77-.32l3.67-3.67a1.08 1.08 0 0 0-1.53-1.53l-3.67 3.67a1.08 1.08 0 0 0 .77 1.85zm-3.5-1.25h-10.67a1.08 1.08 0 0 0-1.08 1.08v15.83a1.08 1.08 0 0 0 1.08 1.08h10.67a1.08 1.08 0 0 0 1.08-1.08v-15.83a1.08 1.08 0 0 0-1.08-1.08zm-1.08 15.83h-8.51v-5.75h8.51v5.75zm0-7.92h-8.51v-5.75h8.51v5.75z" transform="translate(-599.61 -2094.76)"/></svg>