<svg id="Слой_9" data-name="Слой 9" xmlns="http://www.w3.org/2000/svg" viewBox="0 0 65.28 65"><defs><style>.cls-1{fill:#6eff9e}</style></defs><title>дизайн</title><path class="cls-1" d="M1384.25 1834.18l10.33-14.15 15-12.57a1 1 0 0 0 .07-1.5l-10.65-10.64a1 1 0 0 0-1.5.06l-12.5 14.51a1 1 0 0 0-.26.14l-14.25 10.4a1 1 0 0 0-.37.5l-6.16 18.49a1 1 0 0 0 1.29 1.29l18.49-6.16a1 1 0 0 0 .51-.37zm23.15-27.57l-13.51 11.33-7-7 11.5-13.35zm-28.65 19.31a2.79 2.79 0 1 1 3.95 0 2.8 2.8 0 0 1-3.95 0zm-10 11.48l9.39-9.39a4.83 4.83 0 1 0-1.44-1.44l-9.39 9.39 4.69-14.08 13.28-9.69 7.24 7.24-9.69 13.28z" transform="translate(-1344.65 -1795.02)"/><path class="cls-1" d="M1378.75 1854.43l-3.85-3.85a1 1 0 0 0-1.44 0l-1.2 1.2-19.36-19.36 1.2-1.2a1 1 0 0 0 0-1.44l-3.85-3.85a1 1 0 0 0-1.44 0l-3.85 3.85a1 1 0 0 0 0 1.44l3.85 3.85a1 1 0 0 0 1.44 0l1.2-1.2 19.36 19.36-1.2 1.2a1 1 0 0 0 0 1.44l3.85 3.85a1 1 0 0 0 1.44 0l3.85-3.85a1 1 0 0 0 0-1.44zm-29.23-21.52l-2.41-2.41 2.41-2.41 2.41 2.41zm24.65 24.65l-2.41-2.41 2.41-2.41 2.41 2.41z" transform="translate(-1344.65 -1795.02)"/><path class="cls-1" d="M1399.55 1840.56a1 1 0 0 0-1.44 0 24 24 0 1 1-34-34 1 1 0 0 0-1.44-1.44 26.08 26.08 0 0 0 36.88 36.88 1 1 0 0 0 0-1.44z" transform="translate(-1344.65 -1795.02)"/></svg>